<?xml version="1.0" encoding="utf-8"?>
<svg version="1.1" id="Layer_1"
xmlns="http://www.w3.org/2000/svg"
xmlns:xlink="http://www.w3.org/1999/xlink"
width="1200px" height="1200px"
xml:space="preserve">
<g id="PathID_1" transform="matrix(0.973508, 0, 0, 0.973508, 596.05, 601.05)" opacity="1">
<path style="fill:#FFF7F7;fill-opacity:1" d="M607.4 0Q607.4 -249.6 429.45 -426.25Q251.5 -602.9 0 -602.9Q-251.5 -602.9 -429.45 -426.25Q-607.4 -249.6 -607.4 0Q-607.4 249.6 -429.45 426.25Q-251.5 602.9 0 602.9Q251.5 602.9 429.45 426.25Q607.4 249.6 607.4 0" />
</g>
<g id="PathID_2" transform="matrix(0.973508, 0, 0, 0.973508, 596.05, 601.05)" opacity="1">
<path style="fill:none;stroke-width:1;stroke-linecap:round;stroke-linejoin:round;stroke-miterlimit:3;stroke:#000000;stroke-opacity:1" d="M429.4 426.2Q251.45 602.85 0 602.85Q-251.45 602.85 -429.45 426.2Q-607.4 249.55 -607.4 0Q-607.4 -249.6 -429.45 -426.25Q-251.45 -602.9 0 -602.9Q251.45 -602.9 429.4 -426.25Q607.4 -249.6 607.4 0Q607.4 249.55 429.4 426.2z" />
</g>
<g id="PathID_3" transform="matrix(16.8617, 0, 0, 16.8617, 295.45, 80.65)" opacity="1">
<path style="fill:#FF6919;fill-opacity:1" d="M51.7 30.4Q51.7 37.4 46.7 42.4Q41.7 47.35 34.7 47.35Q27.65 47.35 22.7 42.4Q17.7 37.4 17.7 30.4Q17.7 23.35 22.7 18.35Q27.65 13.35 34.7 13.35Q41.7 13.35 46.7 18.35Q51.7 23.35 51.7 30.35L51.7 30.4M41.05 36.75Q40.25 42.2 38.2 45.15Q42.35 44.2 45.4 41.1Q48.5 38.05 49.45 33.9Q46.65 35.85 41.05 36.75M49.9 30.4L49.9 30.35Q49.9 29.05 47.55 27.8Q45.15 26.5 41.3 25.85L41.55 30.35L41.3 34.9Q45.15 34.25 47.55 32.95Q49.9 31.7 49.9 30.4M45.4 19.65Q42.35 16.6 38.2 15.6Q40.25 18.55 41.05 24Q46.65 24.9 49.45 26.85Q48.5 22.7 45.4 19.65M32.95 6.6L2.9 6.6L2.9 53.95L32.95 53.95L32.95 50L34.7 50.1L35.85 50.05L35.85 57.5Q35.85 59.2 34.6 60.45Q33.4 61.65 31.65 61.65L4.15 61.65Q2.45 61.65 1.25 60.45Q0 59.2 0 57.5L0 4.15Q0 2.45 1.25 1.25Q2.45 0 4.15 0L31.65 0Q33.35 0 34.6 1.25Q35.85 2.45 35.85 4.15L35.85 10.7L34.7 10.65L32.95 10.75L32.95 6.6M22.3 3L13.5 3Q13 3 13 3.5Q13 4 13.5 4L22.3 4Q22.8 4 22.8 3.5Q22.8 3 22.3 3M39.2 23.75Q38.55 19.85 37.25 17.5Q36.05 15.15 34.7 15.15Q33.35 15.15 32.1 17.5Q30.8 19.9 30.15 23.75L34.7 23.5L39.2 23.75M31.15 15.6Q27 16.55 23.95 19.65Q20.9 22.7 19.9 26.85Q22.7 24.9 28.3 24Q29.2 18.4 31.15 15.6M39.5 25.6L34.7 25.3L29.9 25.6Q29.65 28 29.65 30.35Q29.65 32.75 29.9 35.15L34.7 35.4L39.5 35.15L39.75 30.35L39.5 25.6M27.85 30.4L28.05 25.85Q24.2 26.5 21.8 27.8Q19.5 29.05 19.5 30.4Q19.5 31.7 21.8 32.95Q24.2 34.25 28.05 34.9L27.85 30.4M37.25 43.25Q38.55 40.9 39.2 37L34.7 37.2L30.15 37Q30.8 40.85 32.1 43.25Q33.35 45.55 34.7 45.55Q36.05 45.55 37.25 43.25M28.3 36.75Q22.7 35.85 19.9 33.9Q20.9 38.1 23.95 41.1Q27 44.2 31.15 45.15Q29.2 42.35 28.3 36.75M20 57.5Q20 56.65 19.4 56.05Q18.75 55.45 17.9 55.45Q17.05 55.45 16.45 56.05Q15.85 56.65 15.85 57.5Q15.85 58.35 16.45 59Q17.05 59.6 17.9 59.6Q18.75 59.6 19.4 59Q20 58.35 20 57.5" />
</g>
<g id="PathID_4" transform="matrix(16.8617, 0, 0, 16.8617, 295.45, 80.65)" opacity="1">
</g>
</svg>